<?xml version="1.0" encoding="iso-8859-1"?>
<!-- Generator: Adobe Illustrator 16.0.0, SVG Export Plug-In . SVG Version: 6.00 Build 0)  -->
<!DOCTYPE svg PUBLIC "-//W3C//DTD SVG 1.1//EN" "http://www.w3.org/Graphics/SVG/1.1/DTD/svg11.dtd">
<svg version="1.1" id="OPTI_x5F_PIX" xmlns="http://www.w3.org/2000/svg" xmlns:xlink="http://www.w3.org/1999/xlink" x="0px"
	 y="0px" width="195px" height="80px" viewBox="0 0 195 80" style="enable-background:new 0 0 195 80;" xml:space="preserve">
<path style="fill:#38BDF8;" d="M35.916,54.043c-3.398,0-6.248-3.209-6.248-6.607V36.665c0-3.398,2.849-6.622,6.248-6.622h5.752v-24
	H13.606c-3.824,0-6.938,3.335-6.938,7.158V68.59c0,3.824,3.114,7.453,6.938,7.453h28.062v-22H35.916z"/>
<path style="fill:#06B6D4;" d="M68.996,6.043H41.668v24h5.018c3.399,0,6.982,3.224,6.982,6.622v10.771
	c0,3.398-3.583,6.607-6.982,6.607h-5.018v22h27.328c3.824,0,6.672-3.629,6.672-7.453V13.201C75.668,9.378,72.82,6.043,68.996,6.043z
	"/>
<g>
	<path style="fill:#38BDF8;" d="M108.168,25.031c0,2.754-0.755,4.981-2.264,6.681c-1.509,1.699-3.533,2.549-6.072,2.549
		c-2.5,0-4.495-0.85-5.984-2.549c-1.489-1.7-2.234-3.926-2.234-6.681V21.56c0-2.744,0.742-4.971,2.227-6.68s3.478-2.564,5.978-2.564
		c2.539,0,4.565,0.855,6.079,2.564s2.271,3.936,2.271,6.68V25.031z M106.424,21.53c0-2.305-0.583-4.161-1.75-5.567
		s-2.786-2.109-4.856-2.109c-2.031,0-3.614,0.703-4.747,2.109s-1.699,3.262-1.699,5.567v3.501c0,2.325,0.569,4.19,1.707,5.596
		c1.138,1.407,2.723,2.11,4.754,2.11c2.08,0,3.699-0.701,4.856-2.103c1.157-1.401,1.735-3.269,1.735-5.604V21.53z"/>
	<path style="fill:#38BDF8;" d="M125.059,26.467c0,2.373-0.537,4.266-1.611,5.677c-1.074,1.411-2.554,2.117-4.438,2.117
		c-1.104,0-2.073-0.21-2.908-0.63s-1.517-1.016-2.044-1.787v8.204h-1.758V18.102h1.348l0.322,2.476
		c0.527-0.879,1.211-1.561,2.052-2.044c0.84-0.483,1.826-0.725,2.959-0.725c1.904,0,3.394,0.76,4.468,2.278s1.611,3.543,1.611,6.072
		V26.467z M123.301,26.16c0-2.012-0.4-3.653-1.201-4.922s-1.973-1.904-3.516-1.904c-1.163,0-2.112,0.278-2.85,0.835
		s-1.297,1.279-1.678,2.168v7.676c0.41,0.86,0.991,1.536,1.743,2.029s1.69,0.74,2.813,0.74c1.533,0,2.697-0.576,3.494-1.729
		c0.796-1.152,1.193-2.681,1.193-4.585V26.16z"/>
	<path style="fill:#38BDF8;" d="M131.739,14.044v4.058h3.487v1.436h-3.487v10.328c0,1.036,0.188,1.771,0.564,2.205
		s0.876,0.652,1.502,0.652c0.214,0,0.422-0.012,0.622-0.037s0.438-0.066,0.711-0.125l0.264,1.304
		c-0.234,0.117-0.525,0.213-0.872,0.286s-0.69,0.109-1.032,0.109c-1.114,0-1.98-0.352-2.601-1.055s-0.931-1.816-0.931-3.34V19.538
		h-2.739v-1.436h2.739v-4.058H131.739z"/>
	<path style="fill:#38BDF8;" d="M140.617,13.561h-1.743V11.1h1.743V13.561z M140.617,33.953h-1.743V18.102h1.743V33.953z"/>
	<path style="fill:#38BDF8;" d="M146.959,18.102l0.161,2.608c0.508-0.918,1.185-1.631,2.029-2.139
		c0.845-0.507,1.849-0.762,3.011-0.762c1.211,0,2.222,0.291,3.032,0.872c0.811,0.582,1.392,1.468,1.743,2.659
		c0.479-1.104,1.16-1.968,2.044-2.593c0.884-0.625,1.95-0.938,3.201-0.938c1.689,0,2.995,0.562,3.918,1.685
		c0.924,1.123,1.385,2.861,1.385,5.215v9.244h-1.758V24.68c0-1.953-0.347-3.333-1.04-4.138s-1.65-1.208-2.871-1.208
		c-1.339,0-2.374,0.408-3.106,1.223s-1.196,1.868-1.392,3.157c0,0.108,0.003,0.215,0.008,0.322c0.005,0.108,0.007,0.245,0.007,0.41
		v9.508h-1.772V24.68c0-1.914-0.35-3.284-1.048-4.109s-1.657-1.238-2.878-1.238c-1.23,0-2.21,0.31-2.938,0.93
		s-1.238,1.458-1.531,2.512v11.178h-1.758V18.102H146.959z"/>
	<path style="fill:#38BDF8;" d="M182.09,33.953c-0.107-0.557-0.188-1.035-0.241-1.436c-0.055-0.4-0.081-0.811-0.081-1.23
		c-0.547,0.859-1.313,1.57-2.3,2.131c-0.986,0.562-2.119,0.843-3.398,0.843c-1.554,0-2.757-0.413-3.611-1.238
		c-0.854-0.825-1.282-1.946-1.282-3.362c0-1.416,0.62-2.563,1.86-3.442s2.852-1.319,4.835-1.319h3.896v-1.963
		c0-1.133-0.359-2.021-1.077-2.666s-1.73-0.967-3.039-0.967c-1.201,0-2.171,0.293-2.908,0.879s-1.106,1.323-1.106,2.212h-1.626
		l-0.029-0.088c-0.059-1.191,0.452-2.239,1.531-3.143c1.079-0.903,2.487-1.355,4.227-1.355c1.738,0,3.135,0.445,4.189,1.333
		c1.055,0.889,1.582,2.164,1.582,3.824v7.793c0,0.557,0.032,1.099,0.096,1.626s0.168,1.05,0.314,1.567H182.09z M176.26,32.708
		c1.348,0,2.515-0.32,3.501-0.959s1.655-1.462,2.007-2.469v-3.032h-3.911c-1.427,0-2.604,0.339-3.531,1.018
		s-1.392,1.497-1.392,2.454c0,0.899,0.296,1.622,0.887,2.168S175.224,32.708,176.26,32.708z"/>
</g>
<g>
	<path style="fill:#06B6D4;" d="M126.901,62.01v7.735h-4.278v-21.33h8.16c2.451,0,4.38,0.625,5.786,1.875
		c1.406,1.251,2.11,2.896,2.11,4.938s-0.704,3.682-2.11,4.922s-3.335,1.86-5.786,1.86H126.901z M126.901,58.714h3.882
		c1.191,0,2.095-0.324,2.71-0.975c0.615-0.648,0.923-1.477,0.923-2.482c0-1.025-0.306-1.873-0.915-2.542
		c-0.611-0.669-1.517-1.004-2.718-1.004h-3.882V58.714z"/>
	<path style="fill:#06B6D4;" d="M145.917,50.1h-4.278v-3.208h4.278V50.1z M145.917,69.745h-4.278V53.895h4.278V69.745z"/>
	<path style="fill:#06B6D4;" d="M155.394,58.934h0.088l2.432-5.039h4.834l-4.775,7.837l4.937,8.014h-4.819l-2.593-5.259
		l-2.594,5.259h-4.834l4.937-8.014l-4.79-7.837h4.805L155.394,58.934z"/>
	<path style="fill:#06B6D4;" d="M171.333,70.053c-2.364,0-4.21-0.726-5.538-2.176s-1.992-3.317-1.992-5.604v-0.586
		c0-2.373,0.645-4.316,1.934-5.83s3.063-2.266,5.318-2.256c2.129,0,3.762,0.651,4.9,1.955c1.138,1.304,1.706,3.06,1.706,5.267v2.212
		h-9.449l-0.044,0.088c0.068,1.085,0.398,1.964,0.989,2.638s1.468,1.011,2.63,1.011c0.957,0,1.77-0.098,2.438-0.293
		s1.36-0.493,2.073-0.894l1.157,2.637c-0.635,0.518-1.494,0.952-2.578,1.304S172.613,70.053,171.333,70.053z M171.055,56.897
		c-0.859,0-1.521,0.296-1.985,0.886c-0.464,0.592-0.745,1.375-0.843,2.352l0.029,0.073h5.216v-0.322c0-0.928-0.19-1.657-0.571-2.19
		C172.52,57.164,171.905,56.897,171.055,56.897z"/>
	<path style="fill:#06B6D4;" d="M184.65,69.745h-4.278V46.892h4.278V69.745z"/>
</g>
</svg>
